<mxfile host="Electron" agent="Mozilla/5.0 (Macintosh; Intel Mac OS X 10_15_7) AppleWebKit/537.36 (KHTML, like Gecko) draw.io/24.7.5 Chrome/126.0.6478.183 Electron/31.3.0 Safari/537.36" version="24.7.5">
  <diagram name="Page-1" id="M6dgCpNU-ZCoiR9Fohvi">
    <mxGraphModel dx="855" dy="566" grid="1" gridSize="10" guides="1" tooltips="1" connect="1" arrows="1" fold="1" page="1" pageScale="1" pageWidth="850" pageHeight="1100" math="0" shadow="0">
      <root>
        <mxCell id="0" />
        <mxCell id="1" parent="0" />
        <mxCell id="-H-Pn9q-S6KHxnqSJmoq-3" style="edgeStyle=orthogonalEdgeStyle;rounded=0;orthogonalLoop=1;jettySize=auto;html=1;exitX=1;exitY=0.5;exitDx=0;exitDy=0;entryX=0;entryY=0.5;entryDx=0;entryDy=0;" parent="1" source="-H-Pn9q-S6KHxnqSJmoq-1" target="-H-Pn9q-S6KHxnqSJmoq-2" edge="1">
          <mxGeometry relative="1" as="geometry" />
        </mxCell>
        <mxCell id="-H-Pn9q-S6KHxnqSJmoq-1" value="" style="ellipse;fillColor=strokeColor;html=1;" parent="1" vertex="1">
          <mxGeometry x="40" y="200" width="30" height="30" as="geometry" />
        </mxCell>
        <mxCell id="-H-Pn9q-S6KHxnqSJmoq-5" style="edgeStyle=orthogonalEdgeStyle;rounded=0;orthogonalLoop=1;jettySize=auto;html=1;exitX=1;exitY=0.5;exitDx=0;exitDy=0;entryX=0;entryY=0.5;entryDx=0;entryDy=0;" parent="1" source="-H-Pn9q-S6KHxnqSJmoq-2" target="-H-Pn9q-S6KHxnqSJmoq-4" edge="1">
          <mxGeometry relative="1" as="geometry" />
        </mxCell>
        <mxCell id="-H-Pn9q-S6KHxnqSJmoq-2" value="Pending" style="html=1;align=center;verticalAlign=middle;rounded=1;absoluteArcSize=1;arcSize=10;dashed=0;whiteSpace=wrap;fontSize=14;fontStyle=1" parent="1" vertex="1">
          <mxGeometry x="130" y="195" width="140" height="40" as="geometry" />
        </mxCell>
        <mxCell id="-H-Pn9q-S6KHxnqSJmoq-7" style="edgeStyle=orthogonalEdgeStyle;rounded=0;orthogonalLoop=1;jettySize=auto;html=1;exitX=1;exitY=0.5;exitDx=0;exitDy=0;" parent="1" source="-H-Pn9q-S6KHxnqSJmoq-4" target="-H-Pn9q-S6KHxnqSJmoq-13" edge="1">
          <mxGeometry relative="1" as="geometry" />
        </mxCell>
        <mxCell id="-H-Pn9q-S6KHxnqSJmoq-9" style="edgeStyle=orthogonalEdgeStyle;rounded=0;orthogonalLoop=1;jettySize=auto;html=1;exitX=0.5;exitY=1;exitDx=0;exitDy=0;entryX=0.5;entryY=0;entryDx=0;entryDy=0;" parent="1" source="-H-Pn9q-S6KHxnqSJmoq-13" target="mW1_Z2Ynw7KeLNTMGm5g-1" edge="1">
          <mxGeometry relative="1" as="geometry">
            <Array as="points" />
          </mxGeometry>
        </mxCell>
        <mxCell id="-H-Pn9q-S6KHxnqSJmoq-4" value="Active" style="html=1;align=center;verticalAlign=middle;rounded=1;absoluteArcSize=1;arcSize=10;dashed=0;whiteSpace=wrap;fontSize=14;fontStyle=1" parent="1" vertex="1">
          <mxGeometry x="340" y="195" width="140" height="40" as="geometry" />
        </mxCell>
        <mxCell id="-H-Pn9q-S6KHxnqSJmoq-10" style="edgeStyle=orthogonalEdgeStyle;rounded=0;orthogonalLoop=1;jettySize=auto;html=1;exitX=0;exitY=0.5;exitDx=0;exitDy=0;entryX=0.5;entryY=1;entryDx=0;entryDy=0;" parent="1" source="-H-Pn9q-S6KHxnqSJmoq-8" target="-H-Pn9q-S6KHxnqSJmoq-2" edge="1">
          <mxGeometry relative="1" as="geometry" />
        </mxCell>
        <mxCell id="-H-Pn9q-S6KHxnqSJmoq-8" value="Retry" style="html=1;align=center;verticalAlign=middle;rounded=1;absoluteArcSize=1;arcSize=10;dashed=0;whiteSpace=wrap;fontSize=14;fontStyle=1" parent="1" vertex="1">
          <mxGeometry x="340" y="315" width="140" height="40" as="geometry" />
        </mxCell>
        <mxCell id="-H-Pn9q-S6KHxnqSJmoq-11" value="" style="ellipse;html=1;shape=endState;fillColor=strokeColor;" parent="1" vertex="1">
          <mxGeometry x="705" y="260" width="30" height="30" as="geometry" />
        </mxCell>
        <mxCell id="-H-Pn9q-S6KHxnqSJmoq-15" style="edgeStyle=orthogonalEdgeStyle;rounded=0;orthogonalLoop=1;jettySize=auto;html=1;exitX=1;exitY=0.5;exitDx=0;exitDy=0;entryX=0;entryY=0.5;entryDx=0;entryDy=0;" parent="1" source="-H-Pn9q-S6KHxnqSJmoq-13" target="-H-Pn9q-S6KHxnqSJmoq-14" edge="1">
          <mxGeometry relative="1" as="geometry" />
        </mxCell>
        <mxCell id="-H-Pn9q-S6KHxnqSJmoq-13" value="" style="rhombus;" parent="1" vertex="1">
          <mxGeometry x="550" y="200" width="30" height="30" as="geometry" />
        </mxCell>
        <mxCell id="-H-Pn9q-S6KHxnqSJmoq-16" style="edgeStyle=orthogonalEdgeStyle;rounded=0;orthogonalLoop=1;jettySize=auto;html=1;exitX=0.5;exitY=1;exitDx=0;exitDy=0;entryX=0.5;entryY=0;entryDx=0;entryDy=0;" parent="1" source="-H-Pn9q-S6KHxnqSJmoq-14" target="-H-Pn9q-S6KHxnqSJmoq-11" edge="1">
          <mxGeometry relative="1" as="geometry" />
        </mxCell>
        <mxCell id="-H-Pn9q-S6KHxnqSJmoq-14" value="Completed" style="html=1;align=center;verticalAlign=middle;rounded=1;absoluteArcSize=1;arcSize=10;dashed=0;whiteSpace=wrap;fontSize=14;fontStyle=1" parent="1" vertex="1">
          <mxGeometry x="650" y="195" width="140" height="40" as="geometry" />
        </mxCell>
        <mxCell id="-H-Pn9q-S6KHxnqSJmoq-17" value="&lt;font style=&quot;font-size: 14px;&quot;&gt;&lt;b&gt;Success?&lt;/b&gt;&lt;/font&gt;" style="text;strokeColor=none;align=center;fillColor=none;html=1;verticalAlign=middle;whiteSpace=wrap;rounded=0;" parent="1" vertex="1">
          <mxGeometry x="522.5" y="165" width="85" height="30" as="geometry" />
        </mxCell>
        <mxCell id="-H-Pn9q-S6KHxnqSJmoq-18" value="&lt;font style=&quot;font-size: 14px;&quot;&gt;&lt;span style=&quot;font-size: 12px;&quot;&gt;Yes&lt;/span&gt;&lt;/font&gt;" style="text;strokeColor=none;align=center;fillColor=none;html=1;verticalAlign=middle;whiteSpace=wrap;rounded=0;" parent="1" vertex="1">
          <mxGeometry x="580" y="210" width="60" height="30" as="geometry" />
        </mxCell>
        <mxCell id="-H-Pn9q-S6KHxnqSJmoq-19" value="&lt;font style=&quot;font-size: 14px;&quot;&gt;&lt;span style=&quot;font-size: 12px;&quot;&gt;No&lt;/span&gt;&lt;/font&gt;" style="text;strokeColor=none;align=center;fillColor=none;html=1;verticalAlign=middle;whiteSpace=wrap;rounded=0;" parent="1" vertex="1">
          <mxGeometry x="520" y="250" width="60" height="30" as="geometry" />
        </mxCell>
        <mxCell id="mW1_Z2Ynw7KeLNTMGm5g-1" value="" style="rhombus;" vertex="1" parent="1">
          <mxGeometry x="550" y="320" width="30" height="30" as="geometry" />
        </mxCell>
        <mxCell id="mW1_Z2Ynw7KeLNTMGm5g-2" value="&lt;font style=&quot;font-size: 14px;&quot;&gt;&lt;b&gt;Retries left?&lt;/b&gt;&lt;/font&gt;" style="text;strokeColor=none;align=center;fillColor=none;html=1;verticalAlign=middle;whiteSpace=wrap;rounded=0;" vertex="1" parent="1">
          <mxGeometry x="522.5" y="355" width="85" height="30" as="geometry" />
        </mxCell>
        <mxCell id="mW1_Z2Ynw7KeLNTMGm5g-3" value="&lt;font style=&quot;font-size: 14px;&quot;&gt;&lt;span style=&quot;font-size: 12px;&quot;&gt;Yes&lt;/span&gt;&lt;/font&gt;" style="text;strokeColor=none;align=center;fillColor=none;html=1;verticalAlign=middle;whiteSpace=wrap;rounded=0;" vertex="1" parent="1">
          <mxGeometry x="490" y="310" width="60" height="30" as="geometry" />
        </mxCell>
        <mxCell id="mW1_Z2Ynw7KeLNTMGm5g-4" style="edgeStyle=orthogonalEdgeStyle;rounded=0;orthogonalLoop=1;jettySize=auto;html=1;exitX=0;exitY=0.5;exitDx=0;exitDy=0;entryX=1;entryY=0.5;entryDx=0;entryDy=0;" edge="1" parent="1" source="mW1_Z2Ynw7KeLNTMGm5g-1" target="-H-Pn9q-S6KHxnqSJmoq-8">
          <mxGeometry relative="1" as="geometry">
            <mxPoint x="590" y="225" as="sourcePoint" />
            <mxPoint x="660" y="225" as="targetPoint" />
          </mxGeometry>
        </mxCell>
        <mxCell id="mW1_Z2Ynw7KeLNTMGm5g-5" value="Failed" style="html=1;align=center;verticalAlign=middle;rounded=1;absoluteArcSize=1;arcSize=10;dashed=0;whiteSpace=wrap;fontSize=14;fontStyle=1" vertex="1" parent="1">
          <mxGeometry x="650" y="315" width="140" height="40" as="geometry" />
        </mxCell>
        <mxCell id="mW1_Z2Ynw7KeLNTMGm5g-6" style="edgeStyle=orthogonalEdgeStyle;rounded=0;orthogonalLoop=1;jettySize=auto;html=1;entryX=0.5;entryY=1;entryDx=0;entryDy=0;" edge="1" parent="1" source="mW1_Z2Ynw7KeLNTMGm5g-5" target="-H-Pn9q-S6KHxnqSJmoq-11">
          <mxGeometry relative="1" as="geometry">
            <mxPoint x="730" y="245" as="sourcePoint" />
            <mxPoint x="730" y="270" as="targetPoint" />
          </mxGeometry>
        </mxCell>
        <mxCell id="mW1_Z2Ynw7KeLNTMGm5g-7" style="edgeStyle=orthogonalEdgeStyle;rounded=0;orthogonalLoop=1;jettySize=auto;html=1;exitX=1;exitY=0.5;exitDx=0;exitDy=0;" edge="1" parent="1" source="mW1_Z2Ynw7KeLNTMGm5g-1" target="mW1_Z2Ynw7KeLNTMGm5g-5">
          <mxGeometry relative="1" as="geometry">
            <mxPoint x="560" y="345" as="sourcePoint" />
            <mxPoint x="490" y="345" as="targetPoint" />
          </mxGeometry>
        </mxCell>
        <mxCell id="mW1_Z2Ynw7KeLNTMGm5g-8" value="&lt;font style=&quot;font-size: 14px;&quot;&gt;&lt;span style=&quot;font-size: 12px;&quot;&gt;No&lt;/span&gt;&lt;/font&gt;" style="text;strokeColor=none;align=center;fillColor=none;html=1;verticalAlign=middle;whiteSpace=wrap;rounded=0;" vertex="1" parent="1">
          <mxGeometry x="580" y="310" width="60" height="30" as="geometry" />
        </mxCell>
      </root>
    </mxGraphModel>
  </diagram>
</mxfile>
